<?xml version="1.0" encoding="UTF-8" standalone="no"?>
<!-- Created with Inkscape (http://www.inkscape.org/) -->

<svg
   xmlns:dc="http://purl.org/dc/elements/1.1/"
   xmlns:cc="http://creativecommons.org/ns#"
   xmlns:rdf="http://www.w3.org/1999/02/22-rdf-syntax-ns#"
   xmlns:svg="http://www.w3.org/2000/svg"
   xmlns="http://www.w3.org/2000/svg"
   version="1.1"
   width="14"
   height="14"
   viewBox="0 0 14 14"
   id="Layer_1"
   xml:space="preserve"><metadata
     id="metadata39"><rdf:RDF><cc:Work
         rdf:about=""><dc:format>image/svg+xml</dc:format><dc:type
           rdf:resource="http://purl.org/dc/dcmitype/StillImage" /><dc:title></dc:title></cc:Work></rdf:RDF></metadata><defs
     id="defs37" /><path
     d="M 12,1 C 12,0.447 11.553,0 11,0 10.447,0 10,0.447 10,1 H 4 C 4,0.447 3.553,0 3,0 2.447,0 2,0.447 2,1 H 0 V 5 H 14 V 1 h -2 z"
     id="path3"
     style="fill:#ffffff" /><g
     id="g5"
     style="fill:#ffffff" /><g
     id="g7"
     style="fill:#ffffff" /><g
     id="g9"
     style="fill:#ffffff" /><g
     id="g11"
     style="fill:#ffffff" /><g
     id="g13"
     style="fill:#ffffff" /><g
     id="g15"
     style="fill:#ffffff" /><g
     id="g17"
     style="fill:#ffffff" /><g
     id="g19"
     style="fill:#ffffff" /><g
     id="g21"
     style="fill:#ffffff" /><g
     id="g23"
     style="fill:#ffffff" /><g
     id="g25"
     style="fill:#ffffff" /><g
     id="g27"
     style="fill:#ffffff" /><g
     id="g29"
     style="fill:#ffffff" /><g
     id="g31"
     style="fill:#ffffff" /><g
     id="g33"
     style="fill:#ffffff" /><path
     d="m 0,6 0,8 14,0 0,-8 -14,0 z m 7.4375,1 c 0.082557,6e-6 0.1612076,0.033713 0.21875,0.09375 0.060041,0.057547 0.093748,0.1361973 0.09375,0.21875 l 0,5.375 c -1.8e-6,0.08256 -0.033709,0.158708 -0.09375,0.21875 C 7.5987076,12.963791 7.5200569,13 7.4375,13 7.3549401,13 7.3100412,12.963791 7.25,12.90625 7.192458,12.846208 7.1562488,12.770059 7.15625,12.6875 l 0,-4.96875 -0.5,0.15625 C 6.6187227,7.8900158 6.6025277,7.9062551 6.5625,7.90625 6.479941,7.9062551 6.4037921,7.8700459 6.34375,7.8125 6.2862089,7.7524627 6.2499997,7.6763139 6.25,7.59375 6.2499997,7.511197 6.2837071,7.4350481 6.34375,7.375 6.3737709,7.3449844 6.3999729,7.3275163 6.4375,7.3125 L 7.34375,7.03125 C 7.3762716,7.0187471 7.3974702,7.000006 7.4375,7 z"
     id="rect3002"
     style="fill:#ffffff;fill-opacity:1;fill-rule:nonzero;stroke:none" /></svg>