<?xml version="1.0" encoding="UTF-8" standalone="no"?>
<!-- Created with Inkscape (http://www.inkscape.org/) -->

<svg
   xmlns:dc="http://purl.org/dc/elements/1.1/"
   xmlns:cc="http://creativecommons.org/ns#"
   xmlns:rdf="http://www.w3.org/1999/02/22-rdf-syntax-ns#"
   xmlns:svg="http://www.w3.org/2000/svg"
   xmlns="http://www.w3.org/2000/svg"
   version="1.1"
   width="14"
   height="14"
   viewBox="0 0 14 14"
   id="Layer_1"
   xml:space="preserve"><metadata
     id="metadata39"><rdf:RDF><cc:Work
         rdf:about=""><dc:format>image/svg+xml</dc:format><dc:type
           rdf:resource="http://purl.org/dc/dcmitype/StillImage" /><dc:title></dc:title></cc:Work></rdf:RDF></metadata><defs
     id="defs37" /><path
     d="M 12,1 C 12,0.447 11.553,0 11,0 10.447,0 10,0.447 10,1 H 4 C 4,0.447 3.553,0 3,0 2.447,0 2,0.447 2,1 H 0 V 5 H 14 V 1 h -2 z"
     id="path3"
     style="fill:#ffffff" /><g
     id="g5"
     style="fill:#ffffff" /><g
     id="g7"
     style="fill:#ffffff" /><g
     id="g9"
     style="fill:#ffffff" /><g
     id="g11"
     style="fill:#ffffff" /><g
     id="g13"
     style="fill:#ffffff" /><g
     id="g15"
     style="fill:#ffffff" /><g
     id="g17"
     style="fill:#ffffff" /><g
     id="g19"
     style="fill:#ffffff" /><g
     id="g21"
     style="fill:#ffffff" /><g
     id="g23"
     style="fill:#ffffff" /><g
     id="g25"
     style="fill:#ffffff" /><g
     id="g27"
     style="fill:#ffffff" /><g
     id="g29"
     style="fill:#ffffff" /><g
     id="g31"
     style="fill:#ffffff" /><g
     id="g33"
     style="fill:#ffffff" /><path
     d="m 0,6 0,8 14,0 0,-8 -14,0 z m 5.5,1.03125 3,0 c 0.081814,6e-6 0.130472,0.034252 0.1875,0.09375 0.0595,0.05703 0.093746,0.1056884 0.09375,0.1875 -3.9e-6,0.059509 -0.0015,0.1091486 -0.03125,0.15625 L 5.78125,12.8125 c -0.017356,0.03223 -0.042666,0.04267 -0.0625,0.0625 -0.059504,0.0595 -0.1369333,0.09375 -0.21875,0.09375 -0.081818,0 -0.1279969,-0.03673 -0.1875,-0.09375 -0.057025,-0.0595 -0.09375,-0.105682 -0.09375,-0.1875 -3e-7,-0.0595 0.022831,-0.127996 0.0625,-0.1875 L 8,7.625 l -2.5,0 C 5.4181821,7.6250054 5.3720031,7.5882796 5.3125,7.53125 5.2554754,7.471752 5.2187497,7.3943229 5.21875,7.3125 5.2187497,7.2306884 5.2554754,7.18203 5.3125,7.125 5.3720031,7.0655024 5.4181821,7.031256 5.5,7.03125 z"
     id="rect2998"
     style="fill:#ffffff;fill-opacity:1;fill-rule:nonzero;stroke:none" /></svg>